PathFileType	4	(X/Y/Z)	Patient4_TMGait_0pt2_01_left_03.trc.trc
DataRate	CameraRate	NumFrames	NumMarkers	Units	OrigDataRate	OrigDataStartFrame	OrigNumFrames
41.176470588235	41.176470588235	6	33	mm	41.176470588235	18	       141
Frame#	Time	Sacral			L.Shoulder			Chest			R.Shoulder			Neck			R.ASIS			L.ASIS			R.Thigh.Superior			R.Thigh.Lateral			R.Thigh.Inferior			R.Patella			L.Thigh.Superior			L.Thigh.Lateral			L.Thigh.Inferior			L.Patella			L.Shank.Superior			L.Shank.Lateral			L.Shank.Inferior			R.Shank.Superior			R.Shank.Lateral			R.Shank.Inferior			R.Heel			R.Midfoot.Superior			R.Midfoot.Lateral			R.Toe			L.Heel			L.Midfoot.Lateral			L.Midfoot.Superior			L.Toe			L.Elbow			L.Wrist			R.Elbow			R.Wrist			
		X1	Y1	Z1	X2	Y2	Z2	X3	Y3	Z3	X4	Y4	Z4	X5	Y5	Z5	X6	Y6	Z6	X7	Y7	Z7	X8	Y8	Z8	X9	Y9	Z9	X10	Y10	Z10	X11	Y11	Z11	X12	Y12	Z12	X13	Y13	Z13	X14	Y14	Z14	X15	Y15	Z15	X16	Y16	Z16	X17	Y17	Z17	X18	Y18	Z18	X19	Y19	Z19	X20	Y20	Z20	X21	Y21	Z21	X22	Y22	Z22	X23	Y23	Z23	X24	Y24	Z24	X25	Y25	Z25	X26	Y26	Z26	X27	Y27	Z27	X28	Y28	Z28	X29	Y29	Z29	X30	Y30	Z30	X31	Y31	Z31	X32	Y32	Z32	X33	Y33	Z33	

18	6.082857142857	819.600604443261	1003.161242258256	592.842627897937	1000.136877147274	1435.095238038963	412.619044365736	1111.012381519649	1357.926258353087	565.007195772925	1039.019008213865	1426.594133011255	745.677756501158	994.168253382957	1490.520704869765	574.508600965129	1055.386551504200	932.651858393717	692.890835961222	1023.321233562205	959.958207603684	421.284493488817	1080.272872467674	729.476716450763	647.634503393022	997.263621948627	618.017553081415	703.952064252567	1066.688284651444	568.181482232527	617.154547310929	1060.242135572787	476.189226127830	618.417318997371	1093.570463246141	771.610738059103	436.223427513087	1035.085834295845	650.317017529490	350.014746411472	1134.116334207762	583.963711712594	404.671852696392	1154.408668909793	511.044377866844	392.009610278239	1121.469194766738	437.598975331161	377.561890613948	1023.846844449775	331.727267567252	320.077828905809	1086.008466790467	210.229131360686	363.106523734424	1017.574692175121	390.880667958980	618.102459429209	931.921885425558	293.928088884681	673.951422281946	958.105102539971	200.224571240024	602.292492494897	801.179420863284	46.531893820325	563.253380743919	974.906332432065	97.002640672677	602.186382226317	883.779631398296	37.981645137282	638.195208975092	1092.394235384285	39.129528977097	630.224738709650	963.153751080381	47.907598470729	391.788767432215	1033.847744868008	47.673078702533	308.673131993521	1118.518839672488	110.243622171056	331.831654000799	1243.949049990964	61.822544052781	295.359231354381	871.320085745293	1113.480492444764	300.783848155972	830.164662369125	854.924852823099	324.713049415925	1150.478518658319	1108.634171057598	876.417919284117	1406.266740067347	1106.636098482076	853.053637717795	
19	6.107142857143	817.638621056553	1003.762709726737	592.795911136930	997.760229108553	1435.401520362249	411.464933029640	1110.071012945511	1357.591993445973	562.475546667485	1040.180889203935	1426.267603242475	743.907567075630	993.414678077999	1490.522966469527	573.519246014009	1053.749207317692	932.349483452546	690.637758998418	1019.638387203235	960.195848960552	419.208834114672	1076.940610887287	728.893589489550	645.493207690345	993.595759288335	618.049338169727	702.568629123137	1061.955655278374	567.736568668363	615.247205075810	1054.889019508873	476.112261744636	616.570990555022	1089.207636947230	771.395882273710	434.688992244099	1029.583084187019	650.031071184359	349.288213912486	1128.317576605624	583.583755228831	403.758148720998	1148.575335489115	511.594935891098	392.150423864407	1118.052503936732	437.922757205997	377.789305126751	1024.592221737374	328.835929430929	318.882064850687	1089.813674844277	209.257976364296	363.274562115483	1012.530922575034	390.867050510278	616.792703907287	927.302976636618	293.918431657579	673.253571191932	953.136687883551	200.108829159596	601.687968724127	796.195382313486	46.276362535312	563.294607325438	969.801375385683	96.879743673549	602.001003438324	878.804486946919	37.901039430769	638.243621741387	1087.430409162908	39.185457329817	630.222625437850	971.147273353118	43.839144086404	390.174475276317	1043.490591333919	44.624433368086	308.493843483506	1126.089865954336	109.527094135787	332.969897596635	1253.452449052689	63.899618384358	299.499871837806	867.150977639688	1114.799315938251	299.586056865568	823.455116649488	856.768386364052	323.611372418895	1160.769627779198	1111.157624209054	870.786028345495	1415.376105122183	1120.644708003327	840.530126060122	
20	6.131428571429	815.906641960764	1004.329558505311	592.461138831230	995.401913757864	1435.574392117269	409.741357751207	1109.154881888618	1357.344903158526	559.452249111585	1041.257392158349	1426.129864522668	741.544711082186	992.614913397229	1490.518918662631	571.937311614787	1052.313726800865	932.089256932611	688.259186882133	1016.279500675166	960.345687146751	416.996387817317	1073.795014945613	728.300140348097	643.337481301190	990.014219084287	618.119240174153	701.150258250401	1057.305121297687	567.278500342532	613.370098884965	1049.563099682427	476.037248840942	614.778671163474	1085.288994091907	771.083079441247	433.208243545129	1024.631229623499	649.683315650476	348.603543906472	1123.152435523128	583.179036385572	402.900398233400	1143.097593513256	511.846933584076	392.355336539168	1114.573734199746	438.064017832094	378.060849166642	1024.596165003221	326.547508622341	318.042417994438	1092.082214074460	208.642467675101	363.729681417127	1007.507202571653	390.857398868847	615.530149115433	922.657457416153	293.942165692531	672.594406913586	948.166132480180	200.008154309318	601.131627018129	791.204192745472	46.040298857960	563.350683972028	964.712426318991	96.776712617604	601.866931429856	873.827106500127	37.816808120118	638.305346088234	1082.466154511321	39.238453201952	630.220781071471	976.719066350190	41.190796544331	389.191247661725	1050.445586967831	42.621084806827	308.784031519680	1131.366392896327	109.132724946436	334.393164327855	1260.077138845953	65.495517663737	303.590597576464	863.299938041879	1115.834801378785	297.825658703663	817.608903081974	858.202151432193	321.678547356966	1170.363938876242	1114.238021170766	864.998027518040	1423.105708228120	1134.688433469551	828.008901450191	
21	6.155714285714	814.426786524007	1004.849838295084	591.777572016273	993.121190256291	1435.599969315247	407.437662572710	1108.282609907458	1357.181067678646	555.967836008213	1042.210451070829	1426.182560636729	738.600676723950	991.781086654084	1490.501568085306	569.754056331871	1051.105788119171	931.873557600171	685.773778707076	1013.328311248712	960.381657999725	414.665268971247	1070.872507316629	727.700378179673	641.188979430827	986.542795722946	618.226410139700	699.702554250175	1052.785210501788	566.805225597173	611.553840410087	1044.311282901847	475.955486133104	613.072152469139	1081.821567536691	770.573319114579	431.745443888147	1020.207164719520	649.207919937566	347.908747361698	1118.559477158472	582.642687322191	402.074467556426	1137.931467010353	511.729623772745	392.558542303281	1111.002999476973	437.945909904069	378.289855217069	1023.802332651982	324.683641841376	317.473195726381	1092.851238561483	208.164709682585	364.346825736805	1002.535635114742	390.845680670699	614.333829923242	917.993730767912	294.005018808047	671.980938339645	943.204867538287	199.924735267429	600.634904012113	786.212631711325	45.833375766641	563.421806426198	959.650963195193	96.700535985583	601.792652725750	868.852410448064	37.731769250899	638.379463742355	1077.504729223026	39.287248174849	630.220551893402	979.901976301374	39.604570604718	388.725156022308	1054.747845148346	41.343872238937	309.390047959250	1134.425290354490	108.807930063087	335.940361962372	1263.992885399794	66.403291830414	307.385300175033	859.784642992105	1116.587987838427	295.524375672741	812.508087114480	859.252541910085	319.066573315609	1179.255495823977	1117.823198862103	859.099976943878	1429.526175343441	1148.749426059091	815.607327001765	
22	6.180000000000	813.212294344967	1005.312904466715	590.690055101195	990.975618773467	1435.474586732734	404.561955286025	1107.473580848606	1357.091938522941	552.063005786238	1043.013745083739	1426.413160373158	735.105139602177	990.931687641302	1490.466992867046	566.979503658156	1050.141146612885	931.703786980124	683.182748986777	1010.844199052588	960.288585561539	412.217215001941	1068.200888889088	727.099990612218	639.046005981943	983.202712753044	618.370597762496	698.212394625142	1048.438221026844	566.316807030324	609.804424699981	1039.179627049081	475.860763028586	611.456872555249	1078.799428666222	769.798286364455	430.230540514763	1016.276936487600	648.552047749133	347.133106079425	1114.472333047993	581.887823811115	401.233971018161	1133.052863759845	511.211911130365	392.686599319792	1107.350390228771	437.525207719007	378.393606875429	1022.243713537477	323.082916927669	317.066115840479	1092.253640940582	207.649769308964	365.001235354267	997.646819018878	390.828115064882	613.201452440491	913.325568305810	294.114302383564	671.406712849468	938.265035230225	199.861062359477	600.196742186308	781.227100007398	45.665529293479	563.505924296910	954.623508640161	96.653678153893	601.775911149142	863.884993135952	37.650195278079	638.463436398362	1072.548626644213	39.330294864958	630.223244152145	980.866475758519	38.762555883894	388.638053309617	1056.582212327575	40.510821484491	310.155988127783	1135.460645672602	108.349610476087	337.463645626957	1265.487209734132	66.484090780863	310.700951063473	856.637351605192	1117.059392035115	292.725082872707	808.067614952421	859.948814273269	315.931494828172	1187.452273489979	1121.831960911553	853.116327575149	1434.730523856851	1162.775137784474	803.427598683311	
23	6.204285714286	812.267174581688	1005.712564075400	589.155475251581	989.015534355324	1435.209028525983	401.142218942449	1106.746439367074	1357.067947491842	547.785593316821	1043.656131782876	1426.797852680802	731.104334374012	990.089374097034	1490.417243643076	563.641990227826	1049.424690914065	931.581753675671	680.469263178116	1008.856836115792	960.067204747637	409.636608753978	1065.795647444677	726.507494836404	636.884123492845	980.011274340442	618.553851417550	696.651210572690	1044.296830186885	565.817118581475	608.104727200695	1034.210125491483	475.751245221378	609.915610723494	1076.213243143323	768.737810954848	428.568629427422	1012.813935727989	647.687315055069	346.196329199912	1110.845204361116	580.868260508200	400.313830382534	1128.476556853032	510.310387870060	392.664724459465	1103.677739426860	436.800123885011	378.301346125599	1020.042806962446	321.624601444870	316.706416023588	1090.502606946198	206.985122489801	365.584277227246	992.867579378605	390.804800733958	612.113034562286	908.670059953960	294.280229506548	670.854150284413	933.359236577734	199.821602670134	599.805992611095	776.253512137646	45.548276589562	563.599386122047	949.633040699105	96.635259008047	601.805872530948	858.929356060770	37.578374717064	638.553374021898	1067.599709574874	39.365435996477	630.230167143245	979.895807069851	38.408079204291	388.791034738736	1056.254877815968	39.906163326429	310.944005662696	1134.755042293700	107.633291853486	338.843537677447	1264.932713272827	65.699162554367	313.423325324937	853.896573986450	1117.256425449377	289.485009818918	804.238154506919	860.323767327315	312.418732865098	1194.973201408071	1126.161379392586	847.055150210636	1438.833897005025	1176.675729978127	791.558293072757	
